<svg xmlns="http://www.w3.org/2000/svg" version="1.0" width="512.000000pt" height="512.000000pt" viewBox="0 0 512.000000 512.000000" preserveAspectRatio="xMidYMid meet">

<g transform="translate(0.000000,512.000000) scale(0.100000,-0.100000)" fill="#ffc719" stroke="none">
<path d="M4190 4085 l0 -465 465 0 465 0 0 465 0 465 -465 0 -465 0 0 -465z" fill="#ffc719"/>
<path d="M3552 4268 l3 -213 218 -3 217 -2 0 215 0 215 -220 0 -220 0 2 -212z" fill="#ffc719"/>
<path d="M3450 3580 l0 -310 310 0 310 0 -2 308 -3 307 -307 3 -308 2 0 -310z" fill="#ffc719"/>
<path d="M550 3784 c-19 -8 -45 -25 -58 -37 -55 -51 -52 15 -52 -1231 l0 -1154 -220 -264 c-213 -253 -221 -264 -216 -300 9 -83 63 -154 150 -201 l41 -22 2125 -3 c1483 -2 2141 1 2177 8 101 21 181 100 202 200 l11 50 -220 265 -220 265 0 420 0 420 -119 0 -120 0 -3 -287 c-3 -269 -4 -290 -23 -323 -12 -19 -36 -43 -55 -55 -35 -20 -44 -20 -1595 -20 -1542 0 -1560 0 -1594 20 -19 11 -43 33 -55 48 -21 28 -21 30 -24 979 -2 936 -2 952 18 993 13 26 34 49 59 63 l39 22 886 0 886 0 0 80 0 80 -992 0 c-864 -1 -998 -3 -1028 -16z m2459 -2872 l63 -77 -713 -3 c-391 -1 -714 0 -717 2 -2 3 25 39 59 80 l64 76 590 0 590 0 64 -78z m-279 -182 c20 -20 18 -47 -4 -62 -6 -4 -174 -8 -373 -8 -315 0 -364 2 -377 16 -22 21 -20 40 6 58 19 14 72 16 375 16 338 0 354 -1 373 -20z" fill="#ffc719"/>
<path d="M2770 3485 l0 -215 215 0 215 0 0 215 0 215 -215 0 -215 0 0 -215z" fill="#ffc719"/>
<path d="M2940 2945 l0 -215 220 0 220 0 0 215 0 215 -220 0 -220 0 0 -215z" fill="#ffc719"/>
<path d="M3910 2770 l0 -370 375 0 375 0 0 370 0 370 -375 0 -375 0 0 -370z" fill="#ffc719"/>
<path d="M2300 2830 l0 -180 180 0 180 0 0 180 0 180 -180 0 -180 0 0 -180z" fill="#ffc719"/>
<path d="M3340 2465 l0 -215 215 0 215 0 0 215 0 215 -215 0 -215 0 0 -215z" fill="#ffc719"/>
<path d="M2657 2554 c-4 -4 -7 -88 -7 -186 l0 -178 185 0 185 0 -2 183 -3 182 -176 3 c-96 1 -178 -1 -182 -4z" fill="#ffc719"/>
<path d="M2070 2330 l0 -180 180 0 180 0 0 180 0 180 -180 0 -180 0 0 -180z" fill="#ffc719"/>
</g>
</svg>