<?xml version="1.0" encoding="UTF-8"?>
<svg xmlns="http://www.w3.org/2000/svg" xmlns:xlink="http://www.w3.org/1999/xlink" width="1224px" height="1224px" viewBox="0 0 1224 1224" version="1.1">
<g id="surface1">
<path style=" stroke:none;fill-rule:nonzero;fill:rgb(100%,78.039216%,9.803922%);fill-opacity:1;" d="M 1001.671875 247.429688 L 1001.671875 358.59375 L 1224 358.59375 L 1224 136.265625 L 1001.671875 136.265625 Z M 1001.671875 247.429688 "/>
<path style=" stroke:none;fill-rule:nonzero;fill:rgb(100%,78.039216%,9.803922%);fill-opacity:1;" d="M 849.148438 203.679688 L 849.867188 254.601562 L 901.984375 255.320312 L 953.859375 255.796875 L 953.859375 153 L 848.671875 153 Z M 849.148438 203.679688 "/>
<path style=" stroke:none;fill-rule:nonzero;fill:rgb(100%,78.039216%,9.803922%);fill-opacity:1;" d="M 824.765625 368.15625 L 824.765625 442.265625 L 972.984375 442.265625 L 972.507812 368.632812 L 971.789062 295.242188 L 898.398438 294.523438 L 824.765625 294.046875 Z M 824.765625 368.15625 "/>
<path style=" stroke:none;fill-rule:nonzero;fill:rgb(100%,78.039216%,9.803922%);fill-opacity:1;" d="M 131.484375 319.386719 C 126.941406 321.300781 120.726562 325.363281 117.617188 328.234375 C 104.46875 340.425781 105.1875 324.648438 105.1875 622.519531 L 105.1875 898.398438 L 52.59375 961.507812 C 1.671875 1021.992188 -0.238281 1024.621094 0.957031 1033.226562 C 3.109375 1053.070312 16.015625 1070.042969 36.816406 1081.28125 L 46.617188 1086.539062 L 554.625 1087.257812 C 909.15625 1087.734375 1066.457031 1087.015625 1075.0625 1085.34375 C 1099.210938 1080.324219 1118.335938 1061.4375 1123.355469 1037.53125 L 1125.984375 1025.578125 L 1020.796875 898.875 L 1020.796875 698.0625 L 963.660156 698.0625 L 962.945312 766.671875 C 962.226562 830.980469 961.988281 836 957.445312 843.890625 C 954.578125 848.433594 948.839844 854.171875 944.296875 857.039062 C 935.929688 861.820312 933.777344 861.820312 562.992188 861.820312 C 194.359375 861.820312 190.054688 861.820312 181.925781 857.039062 C 177.382812 854.410156 171.648438 849.148438 168.777344 845.5625 C 163.757812 838.871094 163.757812 838.390625 163.039062 611.523438 C 162.5625 387.757812 162.5625 383.933594 167.34375 374.132812 C 170.453125 367.917969 175.472656 362.417969 181.449219 359.070312 L 190.773438 353.8125 L 614.390625 353.8125 L 614.390625 315.5625 L 377.242188 315.5625 C 170.691406 315.800781 138.65625 316.28125 131.484375 319.386719 Z M 719.339844 1005.976562 L 734.398438 1024.382812 L 563.949219 1025.101562 C 470.476562 1025.339844 393.257812 1025.101562 392.539062 1024.621094 C 392.0625 1023.90625 398.515625 1015.296875 406.644531 1005.496094 L 421.945312 987.328125 L 704.039062 987.328125 Z M 652.640625 1049.484375 C 657.421875 1054.265625 656.945312 1060.71875 651.683594 1064.304688 C 650.25 1065.261719 610.085938 1066.21875 562.515625 1066.21875 C 487.210938 1066.21875 475.496094 1065.742188 472.386719 1062.394531 C 467.128906 1057.375 467.605469 1052.832031 473.820312 1048.527344 C 478.363281 1045.179688 491.035156 1044.703125 563.46875 1044.703125 C 644.273438 1044.703125 648.097656 1044.941406 652.640625 1049.484375 Z M 652.640625 1049.484375 "/>
<path style=" stroke:none;fill-rule:nonzero;fill:rgb(100%,78.039216%,9.803922%);fill-opacity:1;" d="M 662.203125 390.867188 L 662.203125 442.265625 L 765 442.265625 L 765 339.46875 L 662.203125 339.46875 Z M 662.203125 390.867188 "/>
<path style=" stroke:none;fill-rule:nonzero;fill:rgb(100%,78.039216%,9.803922%);fill-opacity:1;" d="M 702.84375 519.960938 L 702.84375 571.359375 L 808.03125 571.359375 L 808.03125 468.5625 L 702.84375 468.5625 Z M 702.84375 519.960938 "/>
<path style=" stroke:none;fill-rule:nonzero;fill:rgb(100%,78.039216%,9.803922%);fill-opacity:1;" d="M 934.734375 561.796875 L 934.734375 650.25 L 1114.03125 650.25 L 1114.03125 473.34375 L 934.734375 473.34375 Z M 934.734375 561.796875 "/>
<path style=" stroke:none;fill-rule:nonzero;fill:rgb(100%,78.039216%,9.803922%);fill-opacity:1;" d="M 549.84375 547.453125 L 549.84375 590.484375 L 635.90625 590.484375 L 635.90625 504.421875 L 549.84375 504.421875 Z M 549.84375 547.453125 "/>
<path style=" stroke:none;fill-rule:nonzero;fill:rgb(100%,78.039216%,9.803922%);fill-opacity:1;" d="M 798.46875 634.710938 L 798.46875 686.109375 L 901.265625 686.109375 L 901.265625 583.3125 L 798.46875 583.3125 Z M 798.46875 634.710938 "/>
<path style=" stroke:none;fill-rule:nonzero;fill:rgb(100%,78.039216%,9.803922%);fill-opacity:1;" d="M 635.1875 613.433594 C 634.234375 614.390625 633.515625 634.472656 633.515625 657.898438 L 633.515625 700.453125 L 721.96875 700.453125 L 721.492188 656.703125 L 720.773438 613.195312 L 678.699219 612.476562 C 655.75 612.238281 636.144531 612.71875 635.1875 613.433594 Z M 635.1875 613.433594 "/>
<path style=" stroke:none;fill-rule:nonzero;fill:rgb(100%,78.039216%,9.803922%);fill-opacity:1;" d="M 494.859375 666.984375 L 494.859375 710.015625 L 580.921875 710.015625 L 580.921875 623.953125 L 494.859375 623.953125 Z M 494.859375 666.984375 "/>
</g>
</svg>
